<svg width="24" height="24" viewBox="0 0 24 24" fill="currentColor" xmlns="http://www.w3.org/2000/svg">
<path d="M6.00168 6.00198C5.88524 6.11843 5.82702 6.25604 5.82702 6.41482C5.83231 6.5789 5.88788 6.71386 5.99374 6.81972L11.178 12.004L5.99374 17.1882C5.88259 17.2994 5.82702 17.4343 5.82702 17.5931C5.83231 17.7572 5.89053 17.8948 6.00168 18.006C6.11282 18.1171 6.24779 18.1727 6.40657 18.1727C6.56536 18.1727 6.70032 18.1171 6.81147 18.006L11.9957 12.8217L17.18 18.006C17.2911 18.1171 17.4261 18.1727 17.5849 18.1727C17.7437 18.1727 17.8813 18.1145 17.9977 17.998C18.1089 17.8869 18.1644 17.7519 18.1644 17.5931C18.1644 17.4343 18.1089 17.2994 17.9977 17.1882L12.8135 12.004L17.9977 6.81972C18.1089 6.70857 18.1644 6.5736 18.1644 6.41482C18.1697 6.25074 18.1168 6.11313 18.0056 6.00198C17.8945 5.89084 17.7542 5.83526 17.5849 5.83526C17.4261 5.83526 17.2911 5.89084 17.18 6.00198L11.9957 11.1862L6.81147 6.00198C6.70561 5.89613 6.57065 5.84056 6.40657 5.83526C6.24779 5.83526 6.11283 5.89084 6.00168 6.00198Z" fill="currentColor"/>
</svg>
