<svg width="23" height="16" viewBox="0 0 23 16" fill="none" xmlns="http://www.w3.org/2000/svg">
<g clip-path="url(#clip0_863_23245)">
<mask id="mask0_863_23245" style="mask-type:alpha" maskUnits="userSpaceOnUse" x="0" y="0" width="23" height="16">
<path d="M20.2667 0H2.13333C0.955126 0 0 0.955126 0 2.13333V13.8667C0 15.0449 0.955126 16 2.13333 16H20.2667C21.4449 16 22.4 15.0449 22.4 13.8667V2.13333C22.4 0.955126 21.4449 0 20.2667 0Z" fill="white"/>
</mask>
<g mask="url(#mask0_863_23245)">
<path d="M20.2667 0H2.13333C0.955126 0 0 0.955126 0 2.13333V13.8667C0 15.0449 0.955126 16 2.13333 16H20.2667C21.4449 16 22.4 15.0449 22.4 13.8667V2.13333C22.4 0.955126 21.4449 0 20.2667 0Z" fill="white"/>
<path fill-rule="evenodd" clip-rule="evenodd" d="M14.9332 8.00002C14.9332 10.0619 13.2618 11.7334 11.1999 11.7334C9.13802 11.7334 7.46655 10.0619 7.46655 8.00002C7.46655 6.80536 9.97322 6.30402 12.0831 6.49282C12.3071 6.43309 12.5482 6.40002 12.7999 6.40002C13.9786 6.40002 14.9332 7.11682 14.9332 8.00002Z" fill="#0048AB"/>
<path fill-rule="evenodd" clip-rule="evenodd" d="M10.6666 7.46672C10.6666 7.46672 11.6212 6.40006 12.7999 6.40006C13.9786 6.40006 14.9332 7.11686 14.9332 8.00006C14.9332 5.93819 13.2618 4.26672 11.1999 4.26672C9.70975 4.26672 8.42335 5.13926 7.82495 6.40219C7.46655 7.46672 7.46655 7.77819 7.46655 8.00006C7.99989 8.53339 8.59295 8.53339 9.06655 8.53339C9.54015 8.53339 9.96575 8.32752 10.2591 8.00006L10.6666 7.46672Z" fill="#CD0027"/>
<path fill-rule="evenodd" clip-rule="evenodd" d="M15.9999 5.33328H18.1333L15.9999 3.19995H14.9333L15.9999 5.33328ZM6.39994 5.33328H4.2666L6.39994 3.19995H7.4666L6.39994 5.33328ZM15.9999 10.6666H18.1333L15.9999 12.8H14.9333L15.9999 10.6666ZM6.39994 10.6666H4.2666L6.39994 12.8H7.4666L6.39994 10.6666Z" fill="#252526"/>
<path d="M20.2668 0.533325H2.13345C1.24979 0.533325 0.533447 1.24967 0.533447 2.13333V13.8667C0.533447 14.7503 1.24979 15.4667 2.13345 15.4667H20.2668C21.1504 15.4667 21.8668 14.7503 21.8668 13.8667V2.13333C21.8668 1.24967 21.1504 0.533325 20.2668 0.533325Z" stroke="black" stroke-opacity="0.1"/>
</g>
</g>
<defs>
<clipPath id="clip0_863_23245">
<rect width="22.4" height="16" fill="white"/>
</clipPath>
</defs>
</svg>
