<svg width="24" height="28" viewBox="0 0 24 28" fill="none" xmlns="http://www.w3.org/2000/svg">
<g clip-path="url(#clip0_578_17807)">
<path d="M9.42773 13.125H14.5688V16.4325C14.5688 16.7157 14.4586 16.9872 14.2626 17.1874C14.0665 17.3876 13.8007 17.5 13.5234 17.5H10.4731C10.1958 17.5 9.92995 17.3876 9.73391 17.1874C9.53786 16.9872 9.42773 16.7157 9.42773 16.4325V13.125Z" fill="#A7A7A7"/>
<path d="M23.7465 9.00395C23.6669 8.92193 23.5721 8.85684 23.4677 8.81242C23.3633 8.76799 23.2513 8.74512 23.1382 8.74512C23.0251 8.74512 22.9131 8.76799 22.8087 8.81242C22.7043 8.85684 22.6095 8.92193 22.5298 9.00395L19.3595 12.2502H4.63901L1.4687 9.00395C1.30736 8.83918 1.08852 8.74662 0.860346 8.74662C0.632168 8.74662 0.413336 8.83918 0.251989 9.00395C0.0906433 9.16871 2.40425e-09 9.39218 0 9.6252C-2.40425e-09 9.85821 0.0906433 10.0817 0.251989 10.2464L3.43087 13.4839V25.3752C3.43087 26.0714 3.70169 26.7391 4.18375 27.2314C4.66582 27.7237 5.31964 28.0002 6.00139 28.0002H17.9972C18.6789 28.0002 19.3327 27.7237 19.8148 27.2314C20.2968 26.7391 20.5677 26.0714 20.5677 25.3752V13.4839L23.7465 10.2464C23.8269 10.1651 23.8906 10.0683 23.9341 9.9617C23.9776 9.85508 24 9.74071 24 9.6252C24 9.50969 23.9776 9.39532 23.9341 9.28869C23.8906 9.18207 23.8269 9.08529 23.7465 9.00395ZM18.854 25.3752C18.854 25.6073 18.7637 25.8299 18.603 25.994C18.4423 26.158 18.2244 26.2502 17.9972 26.2502H6.00139C5.77414 26.2502 5.5562 26.158 5.39551 25.994C5.23482 25.8299 5.14455 25.6073 5.14455 25.3752V14.0002H18.854V25.3752Z" fill="black"/>
<path d="M9.42794 24.5001H7.71426C7.48701 24.5001 7.26907 24.4079 7.10838 24.2438C6.9477 24.0798 6.85742 23.8572 6.85742 23.6251C6.85742 23.3931 6.9477 23.1705 7.10838 23.0064C7.26907 22.8423 7.48701 22.7501 7.71426 22.7501H9.42794C9.65519 22.7501 9.87313 22.8423 10.0338 23.0064C10.1945 23.1705 10.2848 23.3931 10.2848 23.6251C10.2848 23.8572 10.1945 24.0798 10.0338 24.2438C9.87313 24.4079 9.65519 24.5001 9.42794 24.5001Z" fill="black"/>
<path d="M11.9985 10.5C14.8378 10.5 17.1395 8.14952 17.1395 5.25001C17.1395 2.35051 14.8378 0 11.9985 0C9.15914 0 6.85742 2.35051 6.85742 5.25001C6.85742 8.14952 9.15914 10.5 11.9985 10.5Z" fill="#A7A7A7"/>
<path d="M11.9992 7.87469C11.8865 7.87536 11.7747 7.85328 11.6703 7.80974C11.5659 7.7662 11.4709 7.70204 11.3909 7.62094L8.82035 4.99593C8.659 4.83117 8.56836 4.6077 8.56836 4.37468C8.56836 4.14167 8.659 3.91819 8.82035 3.75343C8.98169 3.58866 9.20053 3.4961 9.42871 3.4961C9.65688 3.4961 9.87572 3.58866 10.0371 3.75343L11.9992 5.76593L16.5319 1.12842C16.6933 0.963659 16.9121 0.871094 17.1403 0.871094C17.3684 0.871094 17.5873 0.963659 17.7486 1.12842C17.91 1.29319 18.0006 1.51666 18.0006 1.74967C18.0006 1.98269 17.91 2.20616 17.7486 2.37092L12.6076 7.62094C12.5275 7.70204 12.4326 7.7662 12.3282 7.80974C12.2238 7.85328 12.112 7.87536 11.9992 7.87469Z" fill="black"/>
</g>
<defs>
<clipPath id="clip0_578_17807">
<rect width="24" height="28" fill="white"/>
</clipPath>
</defs>
</svg>
