<svg width="24" height="24" viewBox="0 0 24 24" fill="none" xmlns="http://www.w3.org/2000/svg">
<g clip-path="url(#clip0_578_17776)">
<mask id="mask0_578_17776" style="mask-type:luminance" maskUnits="userSpaceOnUse" x="0" y="0" width="24" height="24">
<path d="M24 0H0V24H24V0Z" fill="white"/>
</mask>
<g mask="url(#mask0_578_17776)">
<path opacity="0.5" d="M10.5 7.5H13.5V9.75C13.5 9.94891 13.421 10.1397 13.2803 10.2803C13.1397 10.421 12.9489 10.5 12.75 10.5H11.25C11.0511 10.5 10.8603 10.421 10.7197 10.2803C10.579 10.1397 10.5 9.94891 10.5 9.75V7.5Z" fill="#172226"/>
<path d="M15 17.25H9C8.40326 17.25 7.83097 17.0129 7.40901 16.591C6.98705 16.169 6.75 15.5967 6.75 15V9C6.75 8.40326 6.98705 7.83097 7.40901 7.40901C7.83097 6.98705 8.40326 6.75 9 6.75H15C15.5967 6.75 16.169 6.98705 16.591 7.40901C17.0129 7.83097 17.25 8.40326 17.25 9V15C17.25 15.5967 17.0129 16.169 16.591 16.591C16.169 17.0129 15.5967 17.25 15 17.25ZM9 8.25C8.80109 8.25 8.61032 8.32902 8.46967 8.46967C8.32902 8.61032 8.25 8.80109 8.25 9V15C8.25 15.1989 8.32902 15.3897 8.46967 15.5303C8.61032 15.671 8.80109 15.75 9 15.75H15C15.1989 15.75 15.3897 15.671 15.5303 15.5303C15.671 15.3897 15.75 15.1989 15.75 15V9C15.75 8.80109 15.671 8.61032 15.5303 8.46967C15.3897 8.32902 15.1989 8.25 15 8.25H9Z" fill="#172226"/>
<path d="M11.25 14.25H10.5C10.3011 14.25 10.1103 14.171 9.96967 14.0303C9.82902 13.8897 9.75 13.6989 9.75 13.5C9.75 13.3011 9.82902 13.1103 9.96967 12.9697C10.1103 12.829 10.3011 12.75 10.5 12.75H11.25C11.4489 12.75 11.6397 12.829 11.7803 12.9697C11.921 13.1103 12 13.3011 12 13.5C12 13.6989 11.921 13.8897 11.7803 14.0303C11.6397 14.171 11.4489 14.25 11.25 14.25Z" fill="#172226"/>
<path d="M22.5 18.1798L21.75 21.1798C21.7179 21.3081 21.6524 21.4256 21.5602 21.5205C21.468 21.6153 21.3524 21.6841 21.225 21.7198C21.1524 21.7433 21.0762 21.7535 21 21.7498C20.9013 21.7504 20.8034 21.7314 20.7121 21.6941C20.6207 21.6568 20.5376 21.6018 20.4675 21.5323L19.9275 20.9998C19.3109 21.5524 18.637 22.0376 17.9175 22.4473L17.535 22.6498C15.8267 23.5418 13.9272 24.0051 12 23.9998C8.8174 23.9998 5.76516 22.7355 3.51472 20.4851C1.26428 18.2346 5.61115e-07 15.1824 5.61115e-07 11.9998C-0.000287692 11.0625 0.110485 10.1285 0.330001 9.21731C0.387856 9.03771 0.511283 8.88651 0.675667 8.79388C0.840052 8.70124 1.03331 8.67397 1.21691 8.7175C1.40051 8.76104 1.56096 8.87218 1.66625 9.02876C1.77154 9.18534 1.81394 9.37585 1.785 9.56231C1.59613 10.361 1.50049 11.179 1.5 11.9998C1.49946 13.8366 1.98077 15.6414 2.89587 17.234C3.81097 18.8266 5.12785 20.1513 6.71502 21.0759C8.30219 22.0004 10.1041 22.4924 11.9409 22.5027C13.7777 22.5131 15.585 22.0414 17.1825 21.1348L17.25 21.0898C17.8271 20.7597 18.3698 20.3728 18.87 19.9348L18.2175 19.2823C18.1211 19.1861 18.0527 19.0654 18.0197 18.9333C17.9866 18.8012 17.9902 18.6625 18.03 18.5323C18.0657 18.4049 18.1345 18.2893 18.2293 18.1971C18.3242 18.1049 18.4417 18.0394 18.57 18.0073L21.57 17.2573C21.6983 17.2203 21.8341 17.2183 21.9635 17.2514C22.0929 17.2844 22.211 17.3515 22.3058 17.4455C22.4006 17.5395 22.4686 17.6572 22.5027 17.7862C22.5369 17.9153 22.5359 18.0512 22.5 18.1798Z" fill="#172226"/>
<path d="M24.0007 11.9995C24.0009 12.9368 23.8902 13.8708 23.6707 14.782C23.6311 14.9498 23.5349 15.0988 23.3983 15.204C23.2617 15.3092 23.093 15.3641 22.9207 15.3595C22.8634 15.3673 22.8054 15.3673 22.7482 15.3595C22.5555 15.3132 22.3891 15.1926 22.2851 15.0239C22.1811 14.8553 22.1481 14.6524 22.1932 14.4595C22.3913 13.6543 22.4946 12.8287 22.5007 11.9995C22.5012 10.1627 22.0199 8.3579 21.1048 6.76529C20.1897 5.17267 18.8728 3.84796 17.2856 2.92344C15.6985 1.99892 13.8965 1.50693 12.0598 1.49659C10.223 1.48625 8.41567 1.95793 6.81819 2.86452C6.21559 3.20781 5.65009 3.61246 5.13069 4.07202L5.78319 4.71702C5.8796 4.81323 5.94799 4.93387 5.98102 5.066C6.01405 5.19813 6.01048 5.33676 5.97069 5.46702C5.93497 5.59437 5.8662 5.71002 5.77137 5.80222C5.67653 5.89442 5.559 5.9599 5.43069 5.99202L2.43069 6.74202L2.25069 6.74952C2.15198 6.75009 2.05414 6.73117 1.96276 6.69385C1.87138 6.65652 1.78827 6.60153 1.71819 6.53202C1.62048 6.43661 1.55068 6.31633 1.51632 6.18416C1.48195 6.05198 1.48433 5.91294 1.52319 5.78202L2.27319 2.78202C2.30647 2.65509 2.37247 2.53911 2.46459 2.44567C2.55672 2.35223 2.67174 2.2846 2.79819 2.24952C2.92844 2.20973 3.06708 2.20616 3.19921 2.23919C3.33134 2.27222 3.45198 2.34061 3.54819 2.43702L4.06569 2.99952C4.68721 2.45183 5.36324 1.96931 6.08319 1.55952C7.90873 0.524736 9.97371 -0.0132513 12.0721 -0.000764034C14.1705 0.0117232 16.2289 0.574249 18.042 1.63069C19.8551 2.68712 21.3595 4.20054 22.405 6.01994C23.4506 7.83933 24.0007 9.90109 24.0007 11.9995Z" fill="#172226"/>
</g>
</g>
<defs>
<clipPath id="clip0_578_17776">
<rect width="24" height="24" fill="white"/>
</clipPath>
</defs>
</svg>
