<svg width="15" height="16" viewBox="0 0 15 16" fill="none" xmlns="http://www.w3.org/2000/svg">
<g clip-path="url(#clip0_1400_13652)">
<path d="M13.8598 1.08594C13.7817 1.03125 13.6801 1 13.5786 1C13.4926 1 13.4067 1.02344 13.3286 1.07031L0.328578 8.57031C0.164515 8.66406 0.070765 8.84375 0.0785775 9.03125C0.0942025 9.22656 0.21139 9.39063 0.391078 9.46094L3.47702 10.7266L11.8286 3.5L5.07858 11.7734V14.5C5.07858 14.7109 5.21139 14.8984 5.4067 14.9688C5.46139 14.9922 5.5239 15 5.57858 15C5.72702 15 5.86764 14.9375 5.96139 14.8203L7.85202 12.5156L11.3911 13.9609C11.4536 13.9844 11.5161 14 11.5786 14C11.6645 14 11.7504 13.9766 11.8207 13.9375C11.9536 13.8594 12.0473 13.7344 12.0707 13.5859L14.0707 1.58594C14.102 1.39063 14.0239 1.20313 13.8598 1.08594Z" fill="white"/>
</g>
<defs>
<clipPath id="clip0_1400_13652">
<rect width="14" height="15" fill="white" transform="translate(0.078125 0.5)"/>
</clipPath>
</defs>
</svg>
