<svg width="24" height="24" viewBox="0 0 24 24" fill="none" xmlns="http://www.w3.org/2000/svg">
<g clip-path="url(#clip0_578_17788)">
<mask id="mask0_578_17788" style="mask-type:luminance" maskUnits="userSpaceOnUse" x="0" y="0" width="24" height="24">
<path d="M24 0H0V24H24V0Z" fill="white"/>
</mask>
<g mask="url(#mask0_578_17788)">
<path d="M12 24C11.9187 23.9984 11.8379 23.9858 11.76 23.9624C8.98894 23.0405 6.57875 21.269 4.87163 18.8995C3.16451 16.53 2.24722 13.6829 2.25001 10.7624V4.49998C2.25001 4.30107 2.32902 4.1103 2.46967 3.96965C2.61032 3.829 2.80109 3.74998 3.00001 3.74998C4.56671 3.75557 6.11888 3.44945 7.56614 2.84943C9.01337 2.24941 10.3269 1.36748 11.43 0.254982C11.5806 0.100532 11.7845 0.00933611 12 -1.83578e-05C12.1002 -0.00457549 12.2002 0.0109972 12.2943 0.0457788C12.3883 0.0805605 12.4744 0.133845 12.5475 0.202482C13.6509 1.32447 14.9665 2.21589 16.4175 2.8249C17.8687 3.43391 19.4263 3.74837 21 3.74998C21.1989 3.74998 21.3897 3.829 21.5303 3.96965C21.671 4.1103 21.75 4.30107 21.75 4.49998V10.7624C21.7607 13.6893 20.8471 16.5447 19.1394 18.9218C17.4317 21.2988 15.0171 23.076 12.24 24C12.1604 24.0108 12.0796 24.0108 12 24ZM3.75001 5.24998V10.785C3.75272 13.3437 4.54711 15.839 6.02419 17.9284C7.50127 20.0178 9.58868 21.599 12 22.455C14.415 21.5977 16.5049 20.0131 17.9823 17.9192C19.4597 15.8253 20.252 13.3251 20.25 10.7624V5.24998C17.1822 5.08332 14.2668 3.85887 12 1.78498C9.73217 3.85729 6.81743 5.08149 3.75001 5.24998Z" fill="black"/>
<path d="M10.5 7.5H13.5V9.885C13.5 10.0481 13.4352 10.2045 13.3198 10.3198C13.2045 10.4352 13.0481 10.5 12.885 10.5H11.115C10.9519 10.5 10.7955 10.4352 10.6802 10.3198C10.5648 10.2045 10.5 10.0481 10.5 9.885V7.5Z" fill="black"/>
<path d="M15.2175 17.25H8.78254C8.24405 17.248 7.72823 17.0332 7.34749 16.6525C6.96675 16.2717 6.75198 15.7559 6.75 15.2175V8.78254C6.75198 8.24405 6.96675 7.72823 7.34749 7.34749C7.72823 6.96675 8.24405 6.75198 8.78254 6.75H15.2175C15.7559 6.75198 16.2717 6.96675 16.6525 7.34749C17.0332 7.72823 17.248 8.24405 17.25 8.78254V15.2175C17.248 15.7559 17.0332 16.2717 16.6525 16.6525C16.2717 17.0332 15.7559 17.248 15.2175 17.25ZM8.78254 8.25C8.64129 8.25 8.50583 8.3061 8.40597 8.40597C8.3061 8.50583 8.25 8.64129 8.25 8.78254V15.2175C8.25 15.3587 8.3061 15.4941 8.40597 15.594C8.50583 15.6939 8.64129 15.75 8.78254 15.75H15.2175C15.3587 15.75 15.4941 15.6939 15.594 15.594C15.6939 15.4941 15.75 15.3587 15.75 15.2175V8.78254C15.75 8.64129 15.6939 8.50583 15.594 8.40597C15.4941 8.3061 15.3587 8.25 15.2175 8.25H8.78254Z" fill="black"/>
</g>
</g>
<defs>
<clipPath id="clip0_578_17788">
<rect width="24" height="24" fill="white"/>
</clipPath>
</defs>
</svg>
