<svg width="30" height="13" viewBox="0 0 30 13" fill="none" xmlns="http://www.w3.org/2000/svg">
<path d="M15.6125 4.25394V3.66894H17.2962V11.8875H16.3337C16.1432 11.8879 15.9603 11.8097 15.8251 11.6701C15.69 11.5304 15.6135 11.3408 15.6125 11.1426V11.1439C14.9097 11.679 14.061 11.9668 13.19 11.9655C12.1017 11.9655 11.058 11.5161 10.2882 10.716C9.51845 9.91597 9.08566 8.83075 9.085 7.69894C9.08566 6.56713 9.51845 5.48191 10.2882 4.68184C11.058 3.88178 12.1017 3.43234 13.19 3.43234C14.0606 3.43132 14.9088 3.71914 15.6112 4.25394H15.6125ZM8.64875 1.02734V1.29384C8.64875 1.79044 8.585 2.19604 8.27375 2.67184L8.23625 2.71604C8.13255 2.83698 8.03169 2.96052 7.93375 3.08654L2.53 10.1403H8.64875V11.1387C8.64875 11.2372 8.63008 11.3347 8.59382 11.4256C8.55756 11.5165 8.50442 11.5991 8.43742 11.6687C8.37043 11.7382 8.29091 11.7934 8.20342 11.8309C8.11592 11.8685 8.02216 11.8877 7.9275 11.8875H0V11.4169C0 10.841 0.1375 10.5836 0.3125 10.3158L6.07125 2.89934H0.24V1.02734H8.65H8.64875ZM19.3375 11.8875C19.1784 11.8875 19.0258 11.8218 18.9132 11.7048C18.8007 11.5878 18.7375 11.429 18.7375 11.2635V1.02734H20.5387V11.8875H19.3375ZM25.8663 3.38034C26.4089 3.38017 26.9463 3.49117 27.4478 3.707C27.9492 3.92282 28.4049 4.23925 28.7887 4.63822C29.1726 5.03719 29.4771 5.51088 29.685 6.03225C29.8928 6.55361 29.9998 7.11245 30 7.67684C30.0002 8.24124 29.8934 8.80014 29.6859 9.32164C29.4784 9.84314 29.1741 10.317 28.7905 10.7162C28.4069 11.1154 27.9514 11.4322 27.4501 11.6483C26.9488 11.8644 26.4114 11.9758 25.8687 11.9759C24.7727 11.9763 23.7215 11.5238 22.9463 10.7181C22.171 9.91232 21.7353 8.81929 21.735 7.67944C21.7347 6.5396 22.1697 5.4463 22.9445 4.64006C23.7193 3.83382 24.7702 3.38069 25.8663 3.38034ZM13.1913 10.2092C13.5129 10.2169 13.8328 10.1575 14.1322 10.0348C14.4315 9.912 14.7042 9.72827 14.9343 9.49435C15.1644 9.26043 15.3472 8.98105 15.4721 8.67262C15.5969 8.36419 15.6612 8.03293 15.6612 7.69829C15.6612 7.36366 15.5969 7.03239 15.4721 6.72396C15.3472 6.41553 15.1644 6.13615 14.9343 5.90224C14.7042 5.66832 14.4315 5.48458 14.1322 5.36182C13.8328 5.23905 13.5129 5.17973 13.1913 5.18734C12.5604 5.20227 11.9603 5.47337 11.5192 5.94264C11.0781 6.41191 10.8312 7.04207 10.8312 7.69829C10.8312 8.35452 11.0781 8.98468 11.5192 9.45394C11.9603 9.92321 12.5604 10.1943 13.1913 10.2092ZM25.8663 10.2053C26.5111 10.2053 27.1295 9.93895 27.5854 9.46476C28.0414 8.99058 28.2975 8.34744 28.2975 7.67684C28.2975 7.00624 28.0414 6.36311 27.5854 5.88892C27.1295 5.41474 26.5111 5.14834 25.8663 5.14834C25.2214 5.14834 24.603 5.41474 24.1471 5.88892C23.6911 6.36311 23.435 7.00624 23.435 7.67684C23.435 8.34744 23.6911 8.99058 24.1471 9.46476C24.603 9.93895 25.2214 10.2053 25.8663 10.2053Z" fill="#2288FF"/>
</svg>
