<svg width="16" height="15" viewBox="0 0 16 15" fill="none" xmlns="http://www.w3.org/2000/svg">
<path fill-rule="evenodd" clip-rule="evenodd" d="M14.3751 5.53333L10.3417 5.18333L8.76673 1.475C8.48339 0.8 7.51673 0.8 7.23339 1.475L5.65839 5.19167L1.63339 5.53333C0.900061 5.59167 0.60006 6.50833 1.15839 6.99167L4.21673 9.64167L3.30006 13.575C3.13339 14.2917 3.90839 14.8583 4.54173 14.475L8.00006 12.3917L11.4584 14.4833C12.0917 14.8667 12.8667 14.3 12.7001 13.5833L11.7834 9.64167L14.8417 6.99167C15.4001 6.50833 15.1084 5.59167 14.3751 5.53333ZM8.00006 10.8333L4.86673 12.725L5.70006 9.15833L2.93339 6.75833L6.58339 6.44167L8.00006 3.08333L9.42506 6.45L13.0751 6.76667L10.3084 9.16667L11.1417 12.7333L8.00006 10.8333Z" fill="#FEB700"/>
</svg>
