<svg width="24" height="24" viewBox="0 0 24 24" fill="none" xmlns="http://www.w3.org/2000/svg">
<g clip-path="url(#clip0_578_17798)">
<mask id="mask0_578_17798" style="mask-type:luminance" maskUnits="userSpaceOnUse" x="0" y="0" width="24" height="24">
<path d="M24 0H0V24H24V0Z" fill="white"/>
</mask>
<g mask="url(#mask0_578_17798)">
<path d="M5.25 3.75H9.75V6.66C9.75 6.88278 9.66154 7.09644 9.504 7.25397C9.34646 7.4115 9.13277 7.5 8.91 7.5H6.09C5.86722 7.5 5.65356 7.4115 5.49603 7.25397C5.3385 7.09644 5.25 6.88278 5.25 6.66V3.75Z" fill="black"/>
<path d="M23.5575 12.75L22.4025 11.595L21.135 7.7775C21.0357 7.47817 20.8445 7.21777 20.5887 7.0333C20.3328 6.84885 20.0254 6.74972 19.71 6.75H15V5.25C15 4.65327 14.7629 4.08097 14.341 3.65901C13.9191 3.23705 13.3467 3 12.75 3H2.25C1.65327 3 1.08097 3.23705 0.65901 3.65901C0.237053 4.08097 0 4.65327 0 5.25V16.5C0 17.0967 0.237053 17.6691 0.65901 18.091C1.08097 18.5129 1.65327 18.75 2.25 18.75H3.105C3.28755 19.457 3.72167 20.0732 4.32601 20.483C4.93034 20.8928 5.66339 21.0681 6.38775 20.9761C7.11211 20.8841 7.77805 20.5311 8.26074 19.9832C8.74346 19.4353 9.00977 18.7302 9.00977 18C9.00977 17.2698 8.74346 16.5647 8.26074 16.0168C7.77805 15.4689 7.11211 15.1159 6.38775 15.0239C5.66339 14.9319 4.93034 15.1072 4.32601 15.517C3.72167 15.9268 3.28755 16.543 3.105 17.25H2.25C2.05109 17.25 1.86033 17.171 1.71967 17.0303C1.57902 16.8897 1.5 16.6989 1.5 16.5V5.25C1.5 5.05109 1.57902 4.86033 1.71967 4.71967C1.86033 4.57902 2.05109 4.5 2.25 4.5H12.75C12.9489 4.5 13.1397 4.57902 13.2803 4.71967C13.421 4.86033 13.5 5.05109 13.5 5.25V17.25H11.25C11.0511 17.25 10.8603 17.329 10.7197 17.4697C10.579 17.6103 10.5 17.8011 10.5 18C10.5 18.1989 10.579 18.3897 10.7197 18.5303C10.8603 18.671 11.0511 18.75 11.25 18.75H15.855C16.0277 19.3855 16.4048 19.9466 16.928 20.3465C17.4512 20.7465 18.0915 20.9632 18.75 20.9632C19.4085 20.9632 20.0488 20.7465 20.572 20.3465C21.0952 19.9466 21.4723 19.3855 21.645 18.75H22.5C22.8978 18.75 23.2793 18.5919 23.5606 18.3106C23.8419 18.0293 24 17.6478 24 17.25V13.8075C23.9983 13.4103 23.8392 13.03 23.5575 12.75ZM6 16.5C6.29667 16.5 6.58668 16.5879 6.83336 16.7528C7.08003 16.9176 7.27229 17.1519 7.38582 17.426C7.49935 17.7001 7.52906 18.0016 7.47117 18.2926C7.4133 18.5836 7.27044 18.8509 7.06066 19.0606C6.85088 19.2705 6.5836 19.4133 6.29264 19.4712C6.00166 19.5291 5.70006 19.4993 5.42597 19.3858C5.15188 19.2723 4.91762 19.08 4.7528 18.8333C4.58798 18.5867 4.5 18.2967 4.5 18C4.5 17.6022 4.65803 17.2207 4.93934 16.9394C5.22064 16.6581 5.60217 16.5 6 16.5ZM20.7075 11.25H18V8.25H19.71L20.7075 11.25ZM18.75 19.5C18.4533 19.5 18.1633 19.4121 17.9167 19.2472C17.67 19.0824 17.4777 18.8481 17.3642 18.574C17.2507 18.2999 17.2209 17.9984 17.2788 17.7074C17.3367 17.4164 17.4795 17.1491 17.6894 16.9394C17.8991 16.7295 18.1664 16.5867 18.4574 16.5288C18.7484 16.4709 19.0499 16.5007 19.324 16.6142C19.5981 16.7277 19.8324 16.92 19.9972 17.1667C20.1621 17.4133 20.25 17.7033 20.25 18C20.25 18.3978 20.0919 18.7793 19.8106 19.0606C19.5293 19.3419 19.1478 19.5 18.75 19.5ZM22.5 17.25H21.645C21.4723 16.6145 21.0952 16.0534 20.572 15.6535C20.0488 15.2535 19.4085 15.0368 18.75 15.0368C18.0915 15.0368 17.4512 15.2535 16.928 15.6535C16.4048 16.0534 16.0277 16.6145 15.855 17.25H15V8.25H16.5V12C16.5 12.1989 16.579 12.3897 16.7197 12.5303C16.8603 12.671 17.0511 12.75 17.25 12.75H21.4425L22.5 13.8075V17.25Z" fill="black"/>
</g>
</g>
<defs>
<clipPath id="clip0_578_17798">
<rect width="24" height="24" fill="white"/>
</clipPath>
</defs>
</svg>
