<svg width="23" height="16" viewBox="0 0 23 16" fill="none" xmlns="http://www.w3.org/2000/svg">
<g clip-path="url(#clip0_863_23253)">
<mask id="mask0_863_23253" style="mask-type:alpha" maskUnits="userSpaceOnUse" x="0" y="0" width="23" height="16">
<path d="M20.2667 0H2.13333C0.955126 0 0 0.955126 0 2.13333V13.8667C0 15.0449 0.955126 16 2.13333 16H20.2667C21.4449 16 22.4 15.0449 22.4 13.8667V2.13333C22.4 0.955126 21.4449 0 20.2667 0Z" fill="white"/>
</mask>
<g mask="url(#mask0_863_23253)">
<path d="M20.2667 0H2.13333C0.955126 0 0 0.955126 0 2.13333V13.8667C0 15.0449 0.955126 16 2.13333 16H20.2667C21.4449 16 22.4 15.0449 22.4 13.8667V2.13333C22.4 0.955126 21.4449 0 20.2667 0Z" fill="#DC220D"/>
<path fill-rule="evenodd" clip-rule="evenodd" d="M11.202 9.95206L8.97268 11.1254L9.39935 8.64326L7.59668 6.88646L10.0884 6.52379L11.202 4.26672L12.3167 6.52379L14.8073 6.88646L13.0047 8.64326L13.4313 11.1243" fill="#FFFF00"/>
<path d="M20.2668 0.533325H2.13345C1.24979 0.533325 0.533447 1.24967 0.533447 2.13333V13.8667C0.533447 14.7503 1.24979 15.4667 2.13345 15.4667H20.2668C21.1504 15.4667 21.8668 14.7503 21.8668 13.8667V2.13333C21.8668 1.24967 21.1504 0.533325 20.2668 0.533325Z" stroke="black" stroke-opacity="0.1"/>
</g>
</g>
<defs>
<clipPath id="clip0_863_23253">
<rect width="22.4" height="16" fill="white"/>
</clipPath>
</defs>
</svg>
