<svg width="23" height="15" viewBox="0 0 23 15" fill="none" xmlns="http://www.w3.org/2000/svg">
<g clip-path="url(#clip0_1388_353)">
<path d="M22.52 2.34315C22.389 1.88942 22.1323 1.47565 21.7756 1.14324C21.4188 0.810829 20.9744 0.571446 20.4869 0.449045C18.6926 9.11154e-08 11.5 0 11.5 0C11.5 0 4.30737 -9.11154e-08 2.51306 0.446656C2.02539 0.56866 1.5808 0.807911 1.22394 1.14038C0.867087 1.47285 0.610525 1.88684 0.480022 2.34076C-9.79219e-08 4.01274 0 7.5 0 7.5C0 7.5 -9.79219e-08 10.9873 0.480022 12.6568C0.74442 13.5788 1.52478 14.3049 2.51306 14.551C4.30737 15 11.5 15 11.5 15C11.5 15 18.6926 15 20.4869 14.551C21.4778 14.3049 22.2556 13.5788 22.52 12.6568C23 10.9873 23 7.5 23 7.5C23 7.5 23 4.01274 22.52 2.34315ZM9.2154 10.7006V4.29936L15.1708 7.47611L9.2154 10.7006Z" fill="#CE2020"/>
</g>
<defs>
<clipPath id="clip0_1388_353">
<rect width="23" height="15" fill="white"/>
</clipPath>
</defs>
</svg>
